<svg width="30" height="30" viewBox="0 0 30 30" fill="none" xmlns="http://www.w3.org/2000/svg">
<path fill-rule="evenodd" clip-rule="evenodd" d="M11.25 23.4375C11.25 23.9553 11.6697 24.375 12.1875 24.375L27.1875 24.375C27.7053 24.375 28.125 23.9553 28.125 23.4375L28.125 6.5625C28.125 6.04473 27.7053 5.625 27.1875 5.625L12.1875 5.625C11.6697 5.625 11.25 6.04473 11.25 6.5625L11.25 10.3125C11.25 10.8303 10.8303 11.25 10.3125 11.25C9.79473 11.25 9.375 10.8303 9.375 10.3125L9.375 6.5625C9.375 5.0092 10.6342 3.75 12.1875 3.75L27.1875 3.75C28.7408 3.75 30 5.0092 30 6.5625L30 23.4375C30 24.9908 28.7408 26.25 27.1875 26.25L12.1875 26.25C10.6342 26.25 9.375 24.9908 9.375 23.4375L9.375 19.6875C9.375 19.1697 9.79473 18.75 10.3125 18.75C10.8303 18.75 11.25 19.1697 11.25 19.6875L11.25 23.4375Z" fill="#EBACAA"/>
<path fill-rule="evenodd" clip-rule="evenodd" d="M0.274587 15.6629C-0.0915294 15.2968 -0.0915295 14.7032 0.274587 14.3371L5.89959 8.71209C6.2657 8.34597 6.8593 8.34597 7.22541 8.71209C7.59153 9.0782 7.59153 9.6718 7.22541 10.0379L3.20082 14.0625L19.6875 14.0625C20.2053 14.0625 20.625 14.4822 20.625 15C20.625 15.5178 20.2053 15.9375 19.6875 15.9375L3.20082 15.9375L7.22541 19.9621C7.59153 20.3282 7.59153 20.9218 7.22541 21.2879C6.8593 21.654 6.2657 21.654 5.89959 21.2879L0.274587 15.6629Z" fill="#EBACAA"/>
</svg>
