<svg width="22" height="18" viewBox="0 0 22 18" fill="none" xmlns="http://www.w3.org/2000/svg">
<path d="M22 9C22 9 17.875 0.75 11 0.75C4.125 0.75 0 9 0 9C0 9 4.125 17.25 11 17.25C17.875 17.25 22 9 22 9ZM1.61287 9C2.2767 7.89688 3.04145 6.87012 3.89537 5.9355C5.665 4.002 8.085 2.25 11 2.25C13.915 2.25 16.3336 4.002 18.106 5.9355C18.9599 6.87012 19.7247 7.89688 20.3885 9C20.3097 9.13 20.2203 9.274 20.1204 9.432C19.6598 10.152 18.9791 11.112 18.106 12.0645C16.3336 13.998 13.9136 15.75 11 15.75C8.08638 15.75 5.66638 13.998 3.894 12.0645C3.04008 11.1299 2.2767 10.1031 1.61287 9Z" fill="white"/>
<path d="M11.0001 5.72615C10.1318 5.72615 9.29911 6.07107 8.68515 6.68503C8.07119 7.29898 7.72627 8.13169 7.72627 8.99996C7.72627 9.86823 8.07119 10.7009 8.68515 11.3149C9.29911 11.9289 10.1318 12.2738 11.0001 12.2738C11.8683 12.2738 12.7011 11.9289 13.315 11.3149C13.929 10.7009 14.2739 9.86823 14.2739 8.99996C14.2739 8.13169 13.929 7.29898 13.315 6.68503C12.7011 6.07107 11.8683 5.72615 11.0001 5.72615ZM6.41675 8.99996C6.41675 7.78438 6.89963 6.6186 7.75918 5.75905C8.61872 4.89951 9.78451 4.41663 11.0001 4.41663C12.2157 4.41663 13.3814 4.89951 14.241 5.75905C15.1005 6.6186 15.5834 7.78438 15.5834 8.99996C15.5834 10.2155 15.1005 11.3813 14.241 12.2409C13.3814 13.1004 12.2157 13.5833 11.0001 13.5833C9.78451 13.5833 8.61872 13.1004 7.75918 12.2409C6.89963 11.3813 6.41675 10.2155 6.41675 8.99996Z" fill="white"/>
</svg>
