<svg width="22" height="16" viewBox="0 0 22 16" fill="none" xmlns="http://www.w3.org/2000/svg">
<path d="M17.7473 12.0768C19.8889 10.1655 21.0724 7.99996 21.0724 7.99996C21.0724 7.99996 17.2953 1.0752 11.0001 1.0752C9.79074 1.07836 8.59503 1.33036 7.4873 1.81552L8.45677 2.78624C9.27229 2.49068 10.1326 2.33778 11.0001 2.33424C13.6692 2.33424 15.8839 3.80481 17.5068 5.42773C18.2887 6.21221 18.989 7.07404 19.5968 7.99996C19.5246 8.10908 19.4428 8.22995 19.3513 8.36257C18.9295 8.96691 18.3063 9.7727 17.5068 10.5722C17.2995 10.7804 17.0825 10.9843 16.8559 11.1841L17.7473 12.0768Z" fill="white"/>
<path d="M15.1512 9.48067C15.4322 8.69482 15.4842 7.84535 15.3013 7.03109C15.1183 6.21683 14.7079 5.47126 14.1178 4.88114C13.5277 4.29101 12.7821 3.8806 11.9678 3.69765C11.1536 3.51469 10.3041 3.56672 9.51825 3.84769L10.5544 4.88388C11.0383 4.81463 11.5317 4.85901 11.9954 5.01352C12.4591 5.16803 12.8805 5.42841 13.2261 5.77405C13.5718 6.11968 13.8322 6.54105 13.9867 7.00479C14.1412 7.46852 14.1856 7.96187 14.1163 8.44573L15.1512 9.48067ZM11.4459 11.1162L12.4808 12.1511C11.6949 12.4321 10.8455 12.4841 10.0312 12.3012C9.21695 12.1182 8.47138 11.7078 7.88126 11.1177C7.29114 10.5275 6.88072 9.78197 6.69777 8.96771C6.51481 8.15345 6.56685 7.30397 6.84781 6.51813L7.88401 7.55433C7.81475 8.03819 7.85913 8.53154 8.01364 8.99527C8.16815 9.459 8.42854 9.88038 8.77417 10.226C9.1198 10.5716 9.54118 10.832 10.0049 10.9865C10.4686 11.141 10.962 11.1854 11.4459 11.1162Z" fill="white"/>
<path d="M5.1453 4.8146C4.91867 5.01605 4.70128 5.22043 4.49312 5.42776C3.7112 6.21224 3.01094 7.07407 2.4031 7.99999L2.64861 8.3626C3.07039 8.96694 3.69362 9.77273 4.49312 10.5722C6.11603 12.1951 8.33195 13.6657 10.9999 13.6657C11.9014 13.6657 12.75 13.4983 13.5432 13.2125L14.5126 14.1844C13.4049 14.6696 12.2092 14.9216 10.9999 14.9248C4.70464 14.9248 0.92749 7.99999 0.92749 7.99999C0.92749 7.99999 2.10974 5.83317 4.25264 3.9232L5.14404 4.81586L5.1453 4.8146ZM18.1085 16L2.99988 0.891406L3.89129 0L18.9999 15.1086L18.1085 16Z" fill="white"/>
</svg>
